<svg width="600" height="373" viewBox="0 0 600 373" fill="none" xmlns="http://www.w3.org/2000/svg">
<path d="M215.697 46.5098V104.649" stroke="#F0C316" stroke-width="5.81395"/>
<circle cx="216.28" cy="39.5335" r="10.4651" fill="#F0C316"/>
<circle cx="216.28" cy="111.627" r="10.4651" fill="#F0C316"/>
<path d="M383.139 103.488V165.116" stroke="#F0C316" stroke-width="5.81395"/>
<circle cx="383.721" cy="96.51" r="10.4651" fill="#F0C316"/>
<circle cx="383.721" cy="173.254" r="10.4651" fill="#F0C316"/>
<path d="M282.559 17.4414L258.721 41.2786V127.325L229.07 156.976" stroke="#F0C316" stroke-width="5.81395"/>
<circle cx="288.373" cy="10.4651" r="10.4651" fill="#F0C316"/>
<circle cx="222.094" cy="163.953" r="10.4651" fill="#F0C316"/>
<path d="M374.42 46.5098L334.303 85.4633V173.835L311.629 195.347" stroke="#F0C316" stroke-width="5.81395"/>
<circle cx="379.071" cy="41.8596" r="10.4651" fill="#F0C316"/>
<circle cx="305.815" cy="201.162" r="10.4651" fill="#F0C316"/>
<path d="M336.047 18.0215L295.931 57.5564V145.928L254.07 187.208" stroke="#F0C316" stroke-width="5.81395"/>
<circle cx="340.699" cy="12.7893" r="10.4651" fill="#F0C316"/>
<circle cx="248.838" cy="193.022" r="10.4651" fill="#F0C316"/>
<path d="M60.2491 313.605V244.419H70.1328V313.605H60.2491ZM10.6328 313.605V244.419H20.5165V313.605H10.6328ZM19.5282 282.768V274.169H61.1386V282.768H19.5282ZM122.074 314.396C116.803 314.396 111.894 313.507 107.347 311.728C102.867 309.948 98.9791 307.478 95.6846 304.315C92.39 301.086 89.8202 297.33 87.9753 293.047C86.1303 288.764 85.2078 284.086 85.2078 279.012C85.2078 273.939 86.1303 269.261 87.9753 264.978C89.8202 260.695 92.39 256.972 95.6846 253.809C98.9791 250.58 102.867 248.076 107.347 246.297C111.828 244.518 116.737 243.629 122.074 243.629C127.345 243.629 132.188 244.518 136.603 246.297C141.084 248.01 144.971 250.481 148.266 253.71C151.626 256.873 154.196 260.596 155.975 264.879C157.82 269.162 158.743 273.873 158.743 279.012C158.743 284.152 157.82 288.863 155.975 293.146C154.196 297.429 151.626 301.185 148.266 304.414C144.971 307.576 141.084 310.047 136.603 311.826C132.188 313.54 127.345 314.396 122.074 314.396ZM122.074 305.6C125.896 305.6 129.421 304.941 132.65 303.623C135.944 302.305 138.778 300.46 141.15 298.088C143.588 295.65 145.466 292.817 146.783 289.588C148.167 286.359 148.859 282.834 148.859 279.012C148.859 275.191 148.167 271.666 146.783 268.437C145.466 265.208 143.588 262.408 141.15 260.036C138.778 257.598 135.944 255.72 132.65 254.402C129.421 253.084 125.896 252.425 122.074 252.425C118.187 252.425 114.595 253.084 111.301 254.402C108.072 255.72 105.239 257.598 102.801 260.036C100.363 262.408 98.452 265.208 97.0683 268.437C95.7505 271.666 95.0915 275.191 95.0915 279.012C95.0915 282.834 95.7505 286.359 97.0683 289.588C98.452 292.817 100.363 295.65 102.801 298.088C105.239 300.46 108.072 302.305 111.301 303.623C114.595 304.941 118.187 305.6 122.074 305.6ZM162.407 313.605L193.739 244.419H203.524L234.954 313.605H224.576L196.605 249.954H200.559L172.588 313.605H162.407ZM175.75 296.309L178.419 288.402H217.361L220.227 296.309H175.75ZM253.972 296.902L253.478 284.844L292.717 244.419H303.984L273.641 276.443L268.106 282.571L253.972 296.902ZM245.275 313.605V244.419H255.158V313.605H245.275ZM294.298 313.605L265.932 280.594L272.554 273.28L305.862 313.605H294.298ZM342.857 313.605V244.419H352.741V305.007H390.2V313.605H342.857ZM391.065 313.605L422.396 244.419H432.181L463.612 313.605H453.234L425.263 249.954H429.216L401.245 313.605H391.065ZM404.408 296.309L407.077 288.402H446.019L448.885 296.309H404.408ZM473.932 313.605V244.419H504.967C512.94 244.419 519.068 246.034 523.351 249.262C527.634 252.425 529.775 256.774 529.775 262.309C529.775 266.065 528.919 269.228 527.206 271.797C525.558 274.367 523.318 276.344 520.485 277.728C517.651 279.111 514.587 279.803 511.293 279.803L513.072 276.838C517.025 276.838 520.518 277.53 523.549 278.914C526.58 280.297 528.985 282.34 530.764 285.042C532.543 287.677 533.432 290.972 533.432 294.925C533.432 300.855 531.192 305.468 526.711 308.762C522.297 311.991 515.707 313.605 506.944 313.605H473.932ZM483.816 305.6H506.549C512.018 305.6 516.202 304.677 519.101 302.832C522 300.987 523.45 298.088 523.45 294.135C523.45 290.115 522 287.183 519.101 285.338C516.202 283.493 512.018 282.571 506.549 282.571H482.926V274.565H504.078C509.085 274.565 512.973 273.642 515.74 271.797C518.508 269.952 519.892 267.185 519.892 263.495C519.892 259.805 518.508 257.038 515.74 255.193C512.973 253.348 509.085 252.425 504.078 252.425H483.816V305.6ZM568.899 314.396C563.627 314.396 558.587 313.605 553.777 312.024C548.966 310.377 545.178 308.268 542.41 305.698L546.067 297.989C548.703 300.295 552.063 302.206 556.149 303.722C560.234 305.237 564.484 305.995 568.899 305.995C572.918 305.995 576.18 305.534 578.683 304.611C581.187 303.689 583.032 302.437 584.218 300.855C585.404 299.208 585.997 297.363 585.997 295.321C585.997 292.948 585.207 291.038 583.625 289.588C582.11 288.138 580.1 286.985 577.596 286.129C575.158 285.206 572.457 284.416 569.492 283.757C566.527 283.098 563.528 282.34 560.497 281.483C557.532 280.561 554.798 279.408 552.294 278.024C549.856 276.64 547.879 274.795 546.364 272.489C544.848 270.117 544.09 267.086 544.09 263.396C544.09 259.838 545.013 256.576 546.858 253.611C548.769 250.58 551.668 248.175 555.556 246.396C559.509 244.551 564.517 243.629 570.579 243.629C574.598 243.629 578.585 244.156 582.538 245.21C586.492 246.264 589.918 247.78 592.817 249.757L589.556 257.664C586.59 255.687 583.461 254.27 580.166 253.414C576.871 252.491 573.676 252.03 570.579 252.03C566.691 252.03 563.496 252.524 560.992 253.512C558.488 254.501 556.643 255.819 555.457 257.466C554.337 259.113 553.777 260.958 553.777 263.001C553.777 265.439 554.534 267.383 556.05 268.832C557.631 270.282 559.641 271.435 562.079 272.292C564.583 273.148 567.317 273.939 570.282 274.664C573.247 275.323 576.213 276.08 579.178 276.937C582.209 277.793 584.943 278.914 587.381 280.297C589.885 281.681 591.895 283.526 593.41 285.832C594.926 288.138 595.684 291.104 595.684 294.728C595.684 298.22 594.728 301.481 592.817 304.512C590.906 307.478 587.941 309.883 583.922 311.728C579.968 313.507 574.961 314.396 568.899 314.396Z" fill="white"/>
<path d="M63.915 365.605V346.071H71.9243C74.529 346.071 76.5662 346.685 78.036 347.912C79.5243 349.14 80.2685 350.843 80.2685 353.019C80.2685 354.452 79.9336 355.689 79.2639 356.731C78.5941 357.754 77.636 358.545 76.3895 359.103C75.1615 359.643 73.6825 359.912 71.9522 359.912H65.9243L67.5429 358.266V365.605H63.915ZM76.6964 365.605L71.7569 358.517H75.636L80.6034 365.605H76.6964ZM67.5429 358.657L65.9243 356.926H71.7848C73.3848 356.926 74.5848 356.582 75.3848 355.894C76.2034 355.205 76.6127 354.247 76.6127 353.019C76.6127 351.773 76.2034 350.815 75.3848 350.145C74.5848 349.475 73.3848 349.14 71.7848 349.14H65.9243L67.5429 347.354V358.657ZM89.9089 365.605V346.071H104.169V349.112H93.5368V362.564H104.56V365.605H89.9089ZM93.2577 357.178V354.192H102.969V357.178H93.2577ZM119.69 365.605L111.15 346.071H115.085L122.704 363.736H120.443L128.146 346.071H131.774L123.262 365.605H119.69ZM139.416 365.605V346.071H143.044V365.605H139.416ZM159.278 365.605L150.738 346.071H154.673L162.291 363.736H160.031L167.733 346.071H171.361L162.85 365.605H159.278ZM179.004 365.605V346.071H182.632V365.605H179.004ZM193.497 365.605V346.071H196.483L208.734 361.112H207.255V346.071H210.855V365.605H207.869L195.618 350.564H197.097V365.605H193.497ZM230.797 365.885C229.271 365.885 227.867 365.643 226.583 365.159C225.318 364.657 224.211 363.959 223.262 363.066C222.313 362.154 221.578 361.085 221.057 359.857C220.536 358.629 220.276 357.289 220.276 355.838C220.276 354.387 220.536 353.047 221.057 351.819C221.578 350.592 222.313 349.531 223.262 348.638C224.229 347.726 225.355 347.029 226.639 346.545C227.922 346.043 229.327 345.792 230.853 345.792C232.508 345.792 233.997 346.061 235.318 346.601C236.657 347.14 237.783 347.931 238.694 348.973L236.406 351.205C235.643 350.443 234.815 349.885 233.922 349.531C233.048 349.159 232.081 348.973 231.02 348.973C229.997 348.973 229.048 349.14 228.174 349.475C227.299 349.81 226.546 350.285 225.913 350.898C225.281 351.512 224.787 352.238 224.434 353.075C224.099 353.912 223.932 354.833 223.932 355.838C223.932 356.824 224.099 357.736 224.434 358.573C224.787 359.41 225.281 360.145 225.913 360.778C226.546 361.392 227.29 361.866 228.146 362.201C229.001 362.536 229.95 362.703 230.992 362.703C231.96 362.703 232.89 362.554 233.783 362.257C234.694 361.94 235.56 361.419 236.378 360.694L238.443 363.401C237.42 364.219 236.229 364.843 234.871 365.271C233.532 365.68 232.174 365.885 230.797 365.885ZM238.443 363.401L235.011 362.926V355.615H238.443V363.401ZM266.904 365.605V357.875L267.713 360.108L259.229 346.071H263.108L269.918 357.373H267.741L274.606 346.071H278.178L269.694 360.108L270.532 357.875V365.605H266.904ZM294.444 365.885C292.918 365.885 291.514 365.633 290.23 365.131C288.946 364.629 287.83 363.931 286.881 363.038C285.932 362.126 285.197 361.066 284.676 359.857C284.156 358.629 283.895 357.289 283.895 355.838C283.895 354.387 284.156 353.057 284.676 351.847C285.197 350.619 285.932 349.559 286.881 348.666C287.83 347.754 288.946 347.047 290.23 346.545C291.514 346.043 292.909 345.792 294.416 345.792C295.942 345.792 297.337 346.043 298.602 346.545C299.886 347.047 301.002 347.754 301.951 348.666C302.9 349.559 303.635 350.619 304.156 351.847C304.676 353.057 304.937 354.387 304.937 355.838C304.937 357.289 304.676 358.629 304.156 359.857C303.635 361.085 302.9 362.145 301.951 363.038C301.002 363.931 299.886 364.629 298.602 365.131C297.337 365.633 295.951 365.885 294.444 365.885ZM294.416 362.703C295.402 362.703 296.314 362.536 297.151 362.201C297.988 361.866 298.714 361.392 299.328 360.778C299.942 360.145 300.416 359.419 300.751 358.601C301.104 357.764 301.281 356.843 301.281 355.838C301.281 354.833 301.104 353.922 300.751 353.103C300.416 352.266 299.942 351.54 299.328 350.926C298.714 350.294 297.988 349.81 297.151 349.475C296.314 349.14 295.402 348.973 294.416 348.973C293.43 348.973 292.518 349.14 291.681 349.475C290.863 349.81 290.137 350.294 289.504 350.926C288.89 351.54 288.407 352.266 288.053 353.103C287.718 353.922 287.551 354.833 287.551 355.838C287.551 356.824 287.718 357.736 288.053 358.573C288.407 359.41 288.89 360.145 289.504 360.778C290.118 361.392 290.844 361.866 291.681 362.201C292.518 362.536 293.43 362.703 294.416 362.703ZM322.764 365.885C320.085 365.885 317.982 365.131 316.457 363.624C314.95 362.117 314.196 359.94 314.196 357.094V346.071H317.824V356.954C317.824 358.964 318.252 360.424 319.108 361.336C319.982 362.247 321.21 362.703 322.792 362.703C324.373 362.703 325.592 362.247 326.448 361.336C327.303 360.424 327.731 358.964 327.731 356.954V346.071H331.303V357.094C331.303 359.94 330.541 362.117 329.015 363.624C327.508 365.131 325.424 365.885 322.764 365.885ZM341.966 365.605V346.071H349.975C352.58 346.071 354.617 346.685 356.087 347.912C357.575 349.14 358.319 350.843 358.319 353.019C358.319 354.452 357.984 355.689 357.314 356.731C356.645 357.754 355.687 358.545 354.44 359.103C353.212 359.643 351.733 359.912 350.003 359.912H343.975L345.593 358.266V365.605H341.966ZM354.747 365.605L349.807 358.517H353.687L358.654 365.605H354.747ZM345.593 358.657L343.975 356.926H349.835C351.435 356.926 352.635 356.582 353.435 355.894C354.254 355.205 354.663 354.247 354.663 353.019C354.663 351.773 354.254 350.815 353.435 350.145C352.635 349.475 351.435 349.14 349.835 349.14H343.975L345.593 347.354V358.657ZM381.253 365.605V346.071H389.793C391.914 346.071 393.774 346.48 395.374 347.298C396.974 348.117 398.221 349.252 399.114 350.703C400.007 352.154 400.453 353.866 400.453 355.838C400.453 357.792 400.007 359.503 399.114 360.973C398.221 362.424 396.974 363.559 395.374 364.378C393.774 365.196 391.914 365.605 389.793 365.605H381.253ZM384.881 362.536H389.625C391.077 362.536 392.342 362.257 393.421 361.698C394.5 361.14 395.328 360.359 395.905 359.354C396.5 358.35 396.798 357.178 396.798 355.838C396.798 354.48 396.5 353.308 395.905 352.322C395.328 351.317 394.5 350.536 393.421 349.978C392.342 349.419 391.077 349.14 389.625 349.14H384.881V362.536ZM409.891 365.605V346.071H424.151V349.112H413.519V362.564H424.542V365.605H409.891ZM413.24 357.178V354.192H422.951V357.178H413.24ZM439.672 365.605L431.132 346.071H435.067L442.686 363.736H440.425L448.128 346.071H451.756L443.244 365.605H439.672ZM459.398 365.605V346.071H463.026V365.605H459.398ZM482.933 365.885C481.445 365.885 480.059 365.643 478.775 365.159C477.51 364.657 476.403 363.959 475.454 363.066C474.524 362.154 473.798 361.085 473.277 359.857C472.757 358.629 472.496 357.289 472.496 355.838C472.496 354.387 472.757 353.047 473.277 351.819C473.798 350.592 474.533 349.531 475.482 348.638C476.431 347.726 477.538 347.029 478.803 346.545C480.068 346.043 481.454 345.792 482.961 345.792C484.561 345.792 486.022 346.071 487.343 346.629C488.664 347.168 489.78 347.978 490.691 349.057L488.347 351.261C487.64 350.498 486.85 349.931 485.975 349.559C485.101 349.168 484.152 348.973 483.129 348.973C482.105 348.973 481.166 349.14 480.31 349.475C479.473 349.81 478.738 350.285 478.105 350.898C477.491 351.512 477.008 352.238 476.654 353.075C476.319 353.912 476.152 354.833 476.152 355.838C476.152 356.843 476.319 357.764 476.654 358.601C477.008 359.438 477.491 360.164 478.105 360.778C478.738 361.392 479.473 361.866 480.31 362.201C481.166 362.536 482.105 362.703 483.129 362.703C484.152 362.703 485.101 362.517 485.975 362.145C486.85 361.754 487.64 361.168 488.347 360.387L490.691 362.619C489.78 363.68 488.664 364.489 487.343 365.047C486.022 365.605 484.552 365.885 482.933 365.885ZM499.504 365.605V346.071H513.764V349.112H503.132V362.564H514.155V365.605H499.504ZM502.853 357.178V354.192H512.564V357.178H502.853ZM529.836 365.885C528.311 365.885 526.85 365.671 525.455 365.243C524.06 364.796 522.953 364.229 522.134 363.54L523.39 360.722C524.171 361.336 525.139 361.847 526.292 362.257C527.446 362.666 528.627 362.871 529.836 362.871C530.86 362.871 531.688 362.759 532.32 362.536C532.953 362.312 533.418 362.015 533.715 361.643C534.013 361.252 534.162 360.815 534.162 360.331C534.162 359.736 533.948 359.261 533.52 358.908C533.092 358.536 532.534 358.247 531.846 358.043C531.176 357.819 530.422 357.615 529.585 357.429C528.767 357.243 527.939 357.029 527.102 356.787C526.283 356.526 525.529 356.201 524.841 355.81C524.171 355.401 523.622 354.861 523.195 354.192C522.767 353.522 522.553 352.666 522.553 351.624C522.553 350.564 522.832 349.596 523.39 348.722C523.967 347.829 524.832 347.122 525.985 346.601C527.157 346.061 528.636 345.792 530.422 345.792C531.595 345.792 532.757 345.94 533.911 346.238C535.064 346.536 536.069 346.964 536.925 347.522L535.781 350.34C534.906 349.819 534.004 349.438 533.074 349.196C532.143 348.936 531.25 348.805 530.395 348.805C529.39 348.805 528.571 348.926 527.939 349.168C527.325 349.41 526.869 349.726 526.571 350.117C526.292 350.508 526.153 350.954 526.153 351.457C526.153 352.052 526.357 352.536 526.767 352.908C527.195 353.261 527.743 353.54 528.413 353.745C529.102 353.95 529.864 354.154 530.702 354.359C531.539 354.545 532.367 354.759 533.185 355.001C534.022 355.243 534.776 355.559 535.446 355.95C536.134 356.34 536.683 356.871 537.092 357.54C537.52 358.21 537.734 359.057 537.734 360.08C537.734 361.122 537.446 362.089 536.869 362.982C536.311 363.857 535.446 364.564 534.274 365.103C533.102 365.624 531.622 365.885 529.836 365.885Z" fill="#E0E0E0"/>
</svg>
